<?xml version="1.0" standalone="no"?>
<!DOCTYPE svg PUBLIC "-//W3C//DTD SVG 20010904//EN"
 "http://www.w3.org/TR/2001/REC-SVG-20010904/DTD/svg10.dtd">
<svg version="1.0" xmlns="http://www.w3.org/2000/svg"
 width="1200.000000pt" height="979.000000pt" viewBox="0 0 1200.000000 979.000000"
 preserveAspectRatio="xMidYMid meet">
<metadata>
Created by potrace 1.16, written by Peter Selinger 2001-2019
</metadata>
<g transform="translate(0.000000,979.000000) scale(0.100000,-0.100000)"
fill="#000000" stroke="none">
<path d="M3965 9780 c-96 -9 -223 -39 -331 -81 -108 -41 -244 -114 -609 -326
-582 -337 -647 -372 -706 -384 -97 -19 -134 -2 -366 173 -110 84 -270 205
-355 269 -175 132 -277 196 -391 245 -161 69 -350 99 -469 75 -130 -27 -267
-129 -317 -236 -33 -69 -39 -181 -16 -278 40 -167 397 -1018 606 -1447 79
-162 129 -277 129 -295 0 -41 -26 -69 -150 -161 -603 -451 -990 -1062 -990
-1567 0 -429 184 -953 466 -1327 181 -239 445 -433 672 -491 92 -23 234 -25
317 -4 124 33 205 83 430 270 245 204 486 376 562 402 55 19 144 13 194 -12
37 -19 287 -205 464 -345 257 -204 451 -303 683 -349 209 -42 385 -36 612 20
457 113 725 349 854 749 52 161 85 358 86 507 0 28 4 53 10 55 11 3 -43 362
-80 533 -47 213 -150 494 -256 694 -193 364 -449 619 -806 802 -64 32 -150 86
-190 119 -147 119 -164 139 -152 186 4 15 69 154 145 308 187 382 394 875 530
1261 47 134 52 159 53 235 1 77 -2 92 -31 150 -59 119 -181 215 -306 239 -75
14 -200 19 -292 11z"/>
<path d="M7796 9779 c-180 -26 -342 -184 -375 -364 -14 -75 -10 -95 55 -290
52 -157 200 -499 494 -1140 187 -407 186 -405 171 -455 -19 -64 -139 -156
-401 -305 -192 -111 -242 -146 -359 -259 -356 -346 -580 -796 -670 -1346 -33
-200 -41 -332 -31 -487 31 -492 175 -801 464 -995 170 -113 406 -211 590 -243
129 -22 334 -20 457 5 256 52 443 153 807 437 211 164 317 236 388 263 67 25
167 26 226 4 77 -30 230 -140 388 -279 362 -320 499 -395 720 -395 110 0 192
20 306 74 295 140 544 398 717 741 305 607 336 1188 90 1679 -138 276 -311
471 -765 863 -180 156 -206 189 -194 240 4 16 112 242 241 503 243 493 332
695 409 922 110 327 119 458 43 601 -77 146 -266 223 -484 198 -227 -27 -406
-116 -708 -352 -255 -200 -491 -373 -535 -393 -30 -13 -65 -20 -105 -20 -55 1
-75 8 -253 98 -106 53 -347 189 -535 302 -488 294 -640 364 -851 393 -89 13
-214 12 -300 0z"/>
<path d="M11679 3321 c-14 -5 -36 -14 -49 -21 -27 -15 -390 -352 -660 -615
-365 -355 -629 -549 -999 -734 -304 -153 -532 -225 -1131 -356 -1486 -326
-2783 -439 -3885 -339 -1193 107 -2293 472 -3475 1152 -239 137 -384 228 -759
475 -183 120 -356 231 -383 245 -62 32 -141 36 -182 9 -181 -119 -143 -568 89
-1043 130 -267 368 -586 535 -717 151 -119 777 -440 1130 -580 1164 -462 2474
-719 4015 -788 694 -31 1648 46 2379 192 924 184 1601 480 2306 1008 343 256
809 691 1015 946 223 276 369 635 352 865 -7 88 -35 185 -67 230 -43 60 -153
94 -231 71z"/>
</g>
</svg>
